# AST/ASF file generated using VICON BodyLanguage
# -----------------------------------------------
:version 1.10
:name VICON
:units
  mass 1.0
  length 0.45
  angle deg
:documentation
   .ast/.asf automatically generated from VICON data using
   VICON BodyBuilder and BodyLanguage model FoxedUp or BRILLIANT.MOD
:root
   order TX TY TZ RX RY RZ
   axis XYZ
   position 0 0 0  
   orientation 0 0 0 
:bonedata
  begin
     id 1 
     name lhipjoint
     direction 0.575328 -0.747301 0.332475 
     length 2.40933 
     axis 0 0 0  XYZ
  end
  begin
     id 2 
     name lfemur
     direction 0.34202 -0.939693 0  
     length 7.31453  
     axis 0 0 20  XYZ
    dof rx ry rz
    limits (-160.0 20.0)
           (-70.0 70.0)
           (-60.0 70.0)
  end
  begin
     id 3 
     name ltibia
     direction 0.34202 -0.939693 0   
     length 7.82185   
     axis 0 0 20   XYZ
    dof rx
    limits (-10.0 170.0)
  end
  begin
     id 4 
     name lfoot
     direction 0.0795993 -0.218697 0.972541   
     length 2.19173   
     axis -90 7.62852e-016 20   XYZ
    dof rx rz
    limits (-45.0 90.0)
           (-70.0 20.0)
  end
  begin
     id 5 
     name ltoes
     direction 1.53537e-011 -4.21894e-011 1   
     length 1.10023   
     axis -90 7.62852e-016 20   XYZ
    dof rx
    limits (-90.0 20.0)
  end
  begin
     id 6 
     name rhipjoint
     direction -0.513884 -0.783789 0.348708   
     length 2.29716  
     axis 0 0 0  XYZ 
  end
  begin
     id 7 
     name rfemur
     direction -0.34202 -0.939693 0   
     length 7.59573   
     axis 0 0 -20   XYZ
    dof rx ry rz
    limits (-160.0 20.0)
           (-70.0 70.0)
           (-70.0 60.0)
  end
  begin
     id 8 
     name rtibia
     direction -0.34202 -0.939693 0   
     length 7.66402   
     axis 0 0 -20   XYZ
    dof rx
    limits (-10.0 170.0)
 end
 begin
     id 9 
     name rfoot
     direction -0.137793 -0.378584 0.915253   
     length 2.27056  
     axis -90 -7.62852e-016 -20   XYZ
    dof rx rz
    limits (-45.0 90.0)
           (-20.0 70.0)
  end
  begin
     id 10 
     name rtoes
     direction -1.53493e-011 -4.22159e-011 1   
     length 1.11766   
     axis -90 -7.62852e-016 -20   XYZ
    dof rx
    limits (-90.0 20.0)
  end
  begin
     id 11 
     name lowerback
     direction -0.00732775 0.998356 -0.05685   
     length 2.16513   
     axis 0 0 0   XYZ
    dof rx ry rz
    limits (-20.0 45.0)
           (-30.0 30.0)
           (-30.0 30.0)
  end
  begin
     id 12 
     name upperback
     direction 0.0218081 0.999627 -0.0164647   
     length 2.16755   
     axis 0 0 0   XYZ
    dof rx ry rz
    limits (-20.0 45.0)
           (-30.0 30.0)
           (-30.0 30.0)
  end
  begin
     id 13 
     name thorax
     direction 0.02365 0.999661 0.0108914   
     length 2.16932   
     axis 0 0 0   XYZ
    dof rx ry rz
    limits (-20.0 45.0)
           (-30.0 30.0)
           (-30.0 30.0)
  end
  begin
     id 14 
     name lowerneck
     direction -0.0523929 0.978385 0.200044   
     length 1.63877   
     axis 0 0 0   XYZ
    dof rx ry rz
    limits (-20.0 45.0)
           (-30.0 30.0)
           (-30.0 30.0)
  end
  begin
     id 15 
     name upperneck
     direction 0.0448674 0.981321 -0.187074   
     length 1.69014   
     axis 0 0 0   XYZ
    dof rx ry rz
    limits (-20.0 45.0)
           (-30.0 30.0)
           (-30.0 30.0)
  end
  begin
     id 16
     name head
     direction 0.0199089 0.996118 -0.0857429  
     length 1.70094  
     axis 0 0 0   XYZ
    dof rx ry rz
    limits (-20.0 45.0)
           (-30.0 30.0)
           (-30.0 30.0)
  end
  begin
     id 17 
     name lclavicle
     direction 0.940366 0.30191 -0.156722  
     length 3.37521  
     axis 0 0 0   XYZ
    dof ry rz
    limits (-20.0 10.0)
           (0.0 20.0)
  end
  begin
     id 18 
     name lhumerus
     direction 1 -4.4897e-011 -1.7911e-027   
     length 5.25287   
     axis 180 -30 -90   XYZ
    dof rx ry rz
    limits (-60.0 90.0)
           (-90.0 90.0)
           (-90.0 90.0)
  end
  begin
     id 19
     name lradius
     direction 1 -4.48951e-011 1.04424e-027   
     length 3.51014   
     axis 180 -30 -90   XYZ
    dof rx
    limits (-10.0 170.0)
  end
  begin
     id 20
     name lwrist
     direction 1 -4.48997e-011 -9.5942e-028   
     length 1.75507   
     axis 8.48502e-016 90 90   XYZ
    dof ry
    limits (-180.0 0.0)
 end
  begin
     id 21 
     name lhand
     direction 1 -4.48831e-011 -1.90777e-027   
     length 0.706179   
     axis 1.22306e-015 90 90   XYZ
    dof rx rz
    limits (-90.0 90.0)
           (-45.0 45.0)
  end
  begin
     id 22 
     name lfingers
     direction 1 -4.49108e-011 -3.85244e-027   
     length 0.569339   
     axis 2.44611e-015 90 90   XYZ
    dof rx
    limits (0.0 90.0)
  end
  begin
     id 23
     name lthumb
     direction 0.707107 -6.34953e-011 0.707107   
     length 0.817461   
     axis -90 45 -1.62303e-014   XYZ
    dof rx rz
    limits (-45.0 45.0)
           (-45.0 45.0)
  end
  begin
     id 24 
     name rclavicle
     direction -0.905329 0.382405 -0.184787   
     length 3.30787  
     axis 0 0 0   XYZ 
    dof ry rz
    limits (-10.0 20.0)
           (-20.0 0.0)
  end
  begin
     id 25 
     name rhumerus
     direction -1 -4.48953e-011 -9.15316e-029  
     length 5.28721   
     axis 180 30 90   XYZ
    dof rx ry rz
    limits (-90.0 60.0)
           (-90.0 90.0)
           (-90.0 90.0)
  end
  begin
     id 26 
     name rradius
     direction -1 -4.48987e-011 9.37824e-028   
     length 3.50544   
     axis 180 30 90   XYZ
    dof rx
    limits (-10.0 170.0)
  end
  begin
     id 27 
     name rwrist
     direction -1 -4.48967e-011 -9.58414e-028   
     length 1.75272   
     axis 8.48502e-016 -90 -90   XYZ
    dof ry
    limits (-180.0 0.0)
  end
  begin
     id 28
     name rhand
     direction -1 -4.48904e-011 -1.91266e-027   
     length 0.884996   
     axis 1.22306e-015 -90 -90   XYZ
    dof rx rz
    limits (-90.0 90.0)
           (-45.0 45.0)
  end
  begin
     id 29
     name rfingers
     direction -1 -4.4909e-011 -3.85015e-027   
     length 0.713507   
     axis 2.44611e-015 -90 -90   XYZ
    dof rx
    limits (0.0 90.0)
  end
  begin
     id 30
     name rthumb
     direction -0.707107 -6.34853e-011 0.707107   
     length 1.02446   
     axis -90 -45 1.62303e-014   XYZ
    dof rx rz
    limits (-45.0 45.0)
           (-45.0 45.0)
  end
:hierarchy
  begin
    root lhipjoint rhipjoint lowerback
    lhipjoint lfemur
    lfemur ltibia
    ltibia lfoot
    lfoot ltoes
    rhipjoint rfemur
    rfemur rtibia
    rtibia rfoot
    rfoot rtoes
    lowerback upperback
    upperback thorax
    thorax lowerneck lclavicle rclavicle
    lowerneck upperneck
    upperneck head
    lclavicle lhumerus
    lhumerus lradius
    lradius lwrist
    lwrist lhand lthumb
    lhand lfingers
    rclavicle rhumerus
    rhumerus rradius
    rradius rwrist
    rwrist rhand rthumb
    rhand rfingers
  end

#!OML:ASF F:\twosubjects\two\Thursday\Session 1\justin.ASF
:FULLY-SPECIFIED
:DEGREES
51
root 7.18897 12.0452 -17.823 14.555 -1.2117 -0.239328
lowerback 38.1881 0.854545 2.01672
upperback 6.84447 2.03664 1.55225
thorax -11.1467 0.853318 -0.23458
lowerneck -22.2879 -4.36326 -10.899
upperneck -8.26911 -3.16631 9.9234
head 1.29205 -1.00606 4.63029
rclavicle 1.35174e-014 4.77083e-015
rhumerus 36.735 10.9126 -30.6922
rradius 86.4505
rwrist -5.38275
rhand -12.8448 2.05431
rfingers 7.12502
rthumb 13.2428 -27.505
lclavicle 1.35174e-014 4.77083e-015
lhumerus 47.5572 -16.6077 37.4894
lradius 80.2828
lwrist -9.89057
lhand 5.48077 68.3734
lfingers 7.12502
lthumb 30.8284 264.193
rfemur -52.5582 -29.4935 1.9507
rtibia 99.6587
rfoot -40.1642 -24.1343
rtoes -22.3547
lfemur -82.2518 19.0317 -5.49817
ltibia 91.8918
lfoot -24.2541 -9.66956
ltoes -16.3224
52
root 7.17531 12.2183 -17.673 14.9874 -0.933255 -0.609846
lowerback 38.4427 0.869446 1.98909
upperback 6.46677 2.09571 1.77068
thorax -11.6762 0.871157 -0.0176154
lowerneck -21.5023 -4.22203 -10.5015
upperneck -8.84004 -3.12784 9.58771
head 0.993787 -1.02678 4.46929
rclavicle -2.3059e-014 -2.78299e-015
rhumerus 34.8856 12.3908 -31.5689
rradius 87.5433
rwrist -5.05532
rhand -13.695 2.70068
rfingers 7.12502
rthumb 12.4232 -26.9101
lclavicle -2.3059e-014 -2.78299e-015
lhumerus 45.6499 -17.6169 39.8152
lradius 81.1006
lwrist -14.0553
lhand 6.22429 67.3236
lfingers 7.12502
lthumb 31.537 265.379
rfemur -51.3172 -29.014 2.70623
rtibia 97.9876
rfoot -39.9356 -24.6704
rtoes -22.5733
lfemur -81.2555 18.9169 -5.1436
ltibia 91.0305
lfoot -24.4624 -9.31963
ltoes -17.338
53
root 7.16263 12.3944 -17.5132 15.5957 -0.530605 -0.604915
lowerback 38.1396 0.890818 1.6054
upperback 6.32512 2.00863 2.01859
thorax -11.7578 0.845404 0.488522
lowerneck -21.1867 -4.11214 -10.0169
upperneck -9.31798 -3.10848 9.00002
head 0.777791 -1.05382 4.21157
rclavicle -2.14687e-014 -1.39149e-014
rhumerus 33.6607 13.5615 -32.1849
rradius 87.9318
rwrist -4.38492
rhand -14.5497 3.9074
rfingers 7.12502
rthumb 11.599 -25.7516
lclavicle -2.14687e-014 -1.39149e-014
lhumerus 43.8929 -18.6391 41.8081
lradius 81.8443
lwrist -15.3079
lhand 3.14949 66.6652
lfingers 7.12502
lthumb 28.6034 265.504
rfemur -50.2454 -28.8427 3.08175
rtibia 96.1671
rfoot -39.567 -25.0871
rtoes -22.5352
lfemur -80.3485 18.4687 -5.18345
ltibia 89.8655
lfoot -24.7316 -9.03951
ltoes -17.012
54
root 7.15811 12.5753 -17.3444 16.4064 -0.0999954 -0.303088
lowerback 37.546 0.787722 1.35417
upperback 6.16215 1.78275 2.03131
thorax -11.7409 0.756762 0.732559
lowerneck -21.4167 -4.18422 -10.0628
upperneck -9.12676 -3.18141 8.98739
head 0.872743 -1.08502 4.20647
rclavicle 7.95139e-016 1.98785e-015
rhumerus 32.4359 14.5796 -33.1229
rradius 87.8072
rwrist -4.01481
rhand -15.7724 5.25209
rfingers 7.12502
rthumb 10.4197 -24.4697
lclavicle 7.95139e-016 1.98785e-015
lhumerus 42.4462 -19.9781 43.4112
lradius 82.3111
lwrist -14.5434
lhand -0.615096 66.77
lfingers 7.12502
lthumb 25.0011 264.846
rfemur -49.3487 -28.9038 3.15241
rtibia 94.2915
rfoot -39.1534 -25.2754
rtoes -22.164
lfemur -79.654 17.7619 -5.56953
ltibia 88.622
lfoot -24.8773 -8.61284
ltoes -16.5226
55
root 7.14725 12.7662 -17.18 16.8476 0.280823 -0.252178
lowerback 37.7802 0.725899 1.24611
upperback 5.76161 1.69172 2.07374
thorax -12.288 0.716825 0.869007
lowerneck -21.3959 -4.19403 -10.1467
upperneck -8.58771 -3.20138 9.10133
head 1.04049 -1.09163 4.24894
rclavicle -7.95139e-016 7.95139e-016
rhumerus 30.9013 15.8845 -34.2613
rradius 87.6453
rwrist -4.16464
rhand -17.6376 6.07329
rfingers 7.12502
rthumb 8.6201 -23.7307
lclavicle -7.95139e-016 7.95139e-016
lhumerus 41.0366 -21.6649 44.9118
lradius 82.6183
lwrist -12.9467
lhand -3.10381 66.7238
lfingers 7.12502
lthumb 22.6143 264.581
rfemur -47.9694 -28.6676 3.38876
rtibia 92.3261
rfoot -38.8444 -25.4706
rtoes -22.3897
lfemur -78.4096 17.2183 -5.60135
ltibia 87.221
lfoot -25.0094 -8.24382
ltoes -17.1586
56
root 7.14028 12.9456 -17.0126 17.5475 0.470749 -0.364081
lowerback 37.4872 0.753246 1.12621
upperback 5.43946 1.68785 2.09653
thorax -12.5573 0.719619 0.95897
lowerneck -21.3342 -4.17925 -10.2711
upperneck -8.134 -3.17946 9.44139
head 1.18221 -1.07001 4.37438
rclavicle 1.27222e-014 1.90833e-014
rhumerus 29.5061 17.259 -35.2007
rradius 87.4983
rwrist -4.60528
rhand -19.544 6.82585
rfingers 7.12502
rthumb 6.78005 -23.0456
lclavicle 1.27222e-014 1.90833e-014
lhumerus 39.7166 -23.1669 46.226
lradius 82.831
lwrist -11.983
lhand -5.29812 66.8175
lfingers 7.12502
lthumb 20.507 264.246
rfemur -47.0978 -28.2251 3.85142
rtibia 90.432
rfoot -38.2786 -25.349
rtoes -21.957
lfemur -77.4124 17.0039 -5.58451
ltibia 85.7974
lfoot -25.1221 -7.99049
ltoes -17.8173
57
root 7.13257 13.1366 -16.8488 18.0707 0.895574 -0.230175
lowerback 37.3699 0.577295 1.10519
upperback 5.14269 1.451 1.961
thorax -12.8487 0.615274 0.923484
lowerneck -21.0044 -4.16029 -10.3669
upperneck -7.98975 -3.17213 9.93608
head 1.20103 -1.05817 4.54723
rclavicle 3.97569e-015 2.78299e-015
rhumerus 28.2053 18.7259 -35.9873
rradius 87.3309
rwrist -5.00895
rhand -21.143 7.86976
rfingers 7.12502
rthumb 5.23626 -22.0455
lclavicle 3.97569e-015 2.78299e-015
lhumerus 38.3033 -24.6515 47.2433
lradius 82.9418
lwrist -12.7062
lhand -6.21915 66.9114
lfingers 7.12502
lthumb 19.6217 264.059
rfemur -45.8744 -28.0041 3.93216
rtibia 88.4965
rfoot -37.3074 -25.1963
rtoes -21.2914
lfemur -76.2344 16.3878 -5.70552
ltibia 84.2422
lfoot -25.4809 -7.53169
ltoes -19.1367
58
root 7.12953 13.3339 -16.677 18.4797 1.14956 -0.102693
lowerback 37.2699 0.426259 1.01827
upperback 4.89423 1.21387 1.81323
thorax -13.0932 0.513292 0.91029
lowerneck -20.1448 -3.93529 -10.0242
upperneck -8.41558 -3.00832 9.92147
head 0.93581 -1.0075 4.50571
rclavicle 3.97569e-015 3.18055e-015
rhumerus 26.9499 20.3124 -36.7972
rradius 87.1425
rwrist -4.94809
rhand -22.7606 8.65634
rfingers 7.12502
rthumb 3.67429 -21.2917
lclavicle 3.97569e-015 3.18055e-015
lhumerus 36.718 -26.0867 48.1572
lradius 82.7615
lwrist -14.9795
lhand -6.5008 66.373
lfingers 7.12502
lthumb 19.3509 264.57
rfemur -44.6136 -27.5694 3.91365
rtibia 86.5865
rfoot -35.9725 -25.2434
rtoes -21.095
lfemur -74.8523 15.8613 -5.84149
ltibia 82.6591
lfoot -25.9349 -6.9936
ltoes -20.9457
59
root 7.12799 13.5314 -16.4981 18.7798 1.20421 -0.0303662
lowerback 37.1185 0.43203 0.760539
upperback 4.82839 1.11016 1.74793
thorax -13.1157 0.478655 1.02055
lowerneck -19.705 -3.72754 -9.53501
upperneck -8.76363 -2.85811 9.69607
head 0.743486 -0.962373 4.36992
rclavicle -3.57812e-015 -1.98785e-014
rhumerus 25.7765 21.699 -37.5378
rradius 86.8109
rwrist -3.95827
rhand -24.6473 9.21696
rfingers 7.12502
rthumb 1.8522 -20.7547
lclavicle -3.57812e-015 -1.98785e-014
lhumerus 35.0841 -27.2268 49.2782
lradius 82.4651
lwrist -18.0656
lhand -6.82023 65.8113
lfingers 7.12502
lthumb 19.0437 265.101
rfemur -43.3532 -26.8704 3.81425
rtibia 84.7688
rfoot -34.5065 -25.1833
rtoes -20.9737
lfemur -73.2384 15.4425 -5.8973
ltibia 81.0531
lfoot -26.1435 -6.70562
ltoes -21.3539
60
root 7.12606 13.7095 -16.3275 19.3871 1.38629 -0.0387187
lowerback 36.4784 0.401907 0.690337
upperback 4.79442 1.03217 1.7107
thorax -12.9148 0.449375 1.05261
lowerneck -20.0803 -3.73549 -9.43942
upperneck -8.29351 -2.87979 9.79662
head 0.941398 -0.963083 4.37873
rclavicle -2.38542e-015 -1.03368e-014
rhumerus 24.5344 22.9666 -38.124
rradius 86.3759
rwrist -2.69835
rhand -26.6305 9.95891
rfingers 7.12502
rthumb -0.0632562 -20.0208
lclavicle -2.38542e-015 -1.03368e-014
lhumerus 33.5728 -28.3755 50.3995
lradius 82.2593
lwrist -20.9425
lhand -6.70499 65.684
lfingers 7.12502
lthumb 19.1545 265.239
rfemur -42.4902 -26.3413 3.88774
rtibia 83.1492
rfoot -33.3447 -24.5438
rtoes -20.1013
lfemur -72.17 15.0542 -5.92837
ltibia 79.5136
lfoot -26.2019 -6.41547
ltoes -20.5951
61
root 7.1201 13.8752 -16.1612 20.0127 1.57301 -0.165654
lowerback 35.8571 0.375363 0.693536
upperback 4.66434 0.993459 1.70166
thorax -12.8279 0.434096 1.05945
lowerneck -20.3042 -3.8141 -9.53499
upperneck -7.64182 -2.98058 10.058
head 1.18862 -0.997228 4.46293
rclavicle 3.18055e-015 -7.95139e-016
rhumerus 23.1877 24.4359 -38.6043
rradius 85.9597
rwrist -2.05179
rhand -28.3634 10.8455
rfingers 7.12502
rthumb -1.73689 -19.1272
lclavicle 3.18055e-015 -7.95139e-016
lhumerus 32.1877 -29.7199 51.2183
lradius 81.9701
lwrist -22.8118
lhand -5.83895 65.3062
lfingers 7.12502
lthumb 19.9872 265.702
rfemur -41.8381 -25.8202 4.16773
rtibia 81.7485
rfoot -31.9345 -23.894
rtoes -18.6595
lfemur -71.2633 15.0821 -6.00305
ltibia 78.0296
lfoot -26.3528 -6.32285
ltoes -20.4238
62
root 7.11341 14.0385 -15.9981 20.5861 1.62566 -0.104288
lowerback 35.2474 0.413469 0.39672
upperback 4.59754 0.92109 1.6733
thorax -12.7922 0.416158 1.20939
lowerneck -20.2404 -3.83325 -9.47845
upperneck -7.30666 -3.04517 10.2219
head 1.2925 -1.02753 4.49768
rclavicle 1.98785e-015 7.15625e-015
rhumerus 21.9148 25.9722 -39.0239
rradius 85.5431
rwrist -1.56055
rhand -29.587 11.6713
rfingers 7.12502
rthumb -2.91857 -18.2885
lclavicle 1.98785e-015 7.15625e-015
lhumerus 30.6671 -31.025 52.0057
lradius 81.5702
lwrist -23.7003
lhand -9.15396 65.2754
lfingers 7.12502
lthumb 16.7982 265.431
rfemur -41.5013 -25.4516 4.32681
rtibia 80.5951
rfoot -29.5885 -23.6757
rtoes -18.4869
lfemur -70.2876 15.1544 -6.31877
ltibia 76.5433
lfoot -26.536 -6.31169
ltoes -20.5953
63
root 7.1173 14.2013 -15.8341 21.1713 1.54513 -0.198465
lowerback 34.5246 0.446262 0.201248
upperback 4.57025 0.885678 1.69191
thorax -12.5455 0.410233 1.35089
lowerneck -20.3786 -3.81739 -9.57132
upperneck -6.97624 -3.01228 10.335
head 1.41344 -1.00089 4.54833
rclavicle 7.95139e-016 -3.97569e-016
rhumerus 20.9164 27.4307 -39.3854
rradius 84.9915
rwrist -0.746343
rhand -30.6656 12.3937
rfingers 7.12502
rthumb -3.96027 -17.5493
lclavicle 7.95139e-016 -3.97569e-016
lhumerus 29.0601 -32.1479 52.9634
lradius 81.1865
lwrist -24.2711
lhand -9.14508 64.9502
lfingers 7.12502
lthumb 16.8068 265.757
rfemur -41.3411 -25.052 4.56392
rtibia 79.6214
rfoot -26.8616 -23.1604
rtoes -16.9991
lfemur -69.2616 15.1281 -6.41376
ltibia 75.0619
lfoot -26.4923 -7.08774
ltoes -14.9326
